<?xml version="1.0" encoding="UTF-8" standalone="no"?>
<svg
   xmlns:dc="http://purl.org/dc/elements/1.1/"
   xmlns:cc="http://creativecommons.org/ns#"
   xmlns:rdf="http://www.w3.org/1999/02/22-rdf-syntax-ns#"
   xmlns:svg="http://www.w3.org/2000/svg"
   xmlns="http://www.w3.org/2000/svg"
   xmlns:sodipodi="http://sodipodi.sourceforge.net/DTD/sodipodi-0.dtd"
   xmlns:inkscape="http://www.inkscape.org/namespaces/inkscape"
   version="1.1"
   id="Capa_1"
   x="0px"
   y="0px"
   viewBox="0 0 463.507 463.507"
   style="enable-background:new 0 0 463.507 463.507;"
   xml:space="preserve"
   sodipodi:docname="hiking.svg"
   inkscape:version="1.0.1 (3bc2e813f5, 2020-09-07)"><metadata
   id="metadata43"><rdf:RDF><cc:Work
       rdf:about=""><dc:format>image/svg+xml</dc:format><dc:type
         rdf:resource="http://purl.org/dc/dcmitype/StillImage" /></cc:Work></rdf:RDF></metadata><defs
   id="defs41" /><sodipodi:namedview
   pagecolor="#ffffff"
   bordercolor="#666666"
   borderopacity="1"
   objecttolerance="10"
   gridtolerance="10"
   guidetolerance="10"
   inkscape:pageopacity="0"
   inkscape:pageshadow="2"
   inkscape:window-width="1623"
   inkscape:window-height="1162"
   id="namedview39"
   showgrid="false"
   inkscape:zoom="2.1747245"
   inkscape:cx="231.75349"
   inkscape:cy="231.75349"
   inkscape:window-x="0"
   inkscape:window-y="27"
   inkscape:window-maximized="0"
   inkscape:current-layer="Capa_1" />
<g
   id="g6"
   style="fill:#444440;fill-opacity:1">
	<path
   d="M246.413,78.492c21.688,0,39.255-17.573,39.255-39.251c0-21.67-17.567-39.24-39.255-39.24   c-21.652,0-39.242,17.57-39.242,39.24C207.171,60.919,224.761,78.492,246.413,78.492z"
   id="path2"
   style="fill:#444440;fill-opacity:1" />
	<path
   d="M386.604,202.858c0-11.185-9.066-20.251-20.253-20.251h-68.479l-38.62-54.832l0.127-0.933   c1.378-10.474-1.474-21.067-7.911-29.444c-6.441-8.378-15.932-13.852-26.408-15.23c-11.596-1.511-22.592,2.224-30.852,9.225V45.779   c0-7.847-6.362-14.217-14.225-14.217H140.59c-7.867,0-14.225,6.37-14.225,14.217v168.953c0,20.68,15.821,37.476,35.979,39.446   l-3.043,7.073l-23.859,90.136l-53.73,72.188c-8.006,10.768-5.794,25.987,4.984,34.001c4.348,3.245,9.443,4.811,14.491,4.811   c7.422,0,14.729-3.385,19.511-9.795l56.529-75.945c1.851-2.484,3.213-5.299,4.003-8.289l16.266-61.414l44.521,40.877l-6.076,88.603   c-0.917,13.393,9.177,24.99,22.58,25.908c0.552,0.04,1.124,0.056,1.691,0.056c12.66,0,23.339-9.819,24.208-22.642l6.882-100.264   c0.508-7.364-2.371-14.572-7.815-19.564l-45.994-42.219l13.992-90.613l19.331,27.435c3.801,5.387,9.972,8.592,16.552,8.592h70.882   l1.339,232.294c0,4.478,3.626,8.101,8.101,8.101c4.479,0,8.101-3.624,8.101-8.101l-1.339-234.036   C381.588,218.245,386.604,211.15,386.604,202.858z"
   id="path4"
   style="fill:#444440;fill-opacity:1" />
</g>
<g
   id="g8"
   style="fill:#444440;fill-opacity:1">
</g>
<g
   id="g10"
   style="fill:#444440;fill-opacity:1">
</g>
<g
   id="g12"
   style="fill:#444440;fill-opacity:1">
</g>
<g
   id="g14"
   style="fill:#444440;fill-opacity:1">
</g>
<g
   id="g16"
   style="fill:#444440;fill-opacity:1">
</g>
<g
   id="g18"
   style="fill:#444440;fill-opacity:1">
</g>
<g
   id="g20"
   style="fill:#444440;fill-opacity:1">
</g>
<g
   id="g22"
   style="fill:#444440;fill-opacity:1">
</g>
<g
   id="g24"
   style="fill:#444440;fill-opacity:1">
</g>
<g
   id="g26"
   style="fill:#444440;fill-opacity:1">
</g>
<g
   id="g28"
   style="fill:#444440;fill-opacity:1">
</g>
<g
   id="g30"
   style="fill:#444440;fill-opacity:1">
</g>
<g
   id="g32"
   style="fill:#444440;fill-opacity:1">
</g>
<g
   id="g34"
   style="fill:#444440;fill-opacity:1">
</g>
<g
   id="g36"
   style="fill:#444440;fill-opacity:1">
</g>
</svg>
