<?xml version="1.0" encoding="UTF-8" standalone="no"?>
<svg
   xmlns:dc="http://purl.org/dc/elements/1.1/"
   xmlns:cc="http://creativecommons.org/ns#"
   xmlns:rdf="http://www.w3.org/1999/02/22-rdf-syntax-ns#"
   xmlns:svg="http://www.w3.org/2000/svg"
   xmlns="http://www.w3.org/2000/svg"
   xmlns:sodipodi="http://sodipodi.sourceforge.net/DTD/sodipodi-0.dtd"
   xmlns:inkscape="http://www.inkscape.org/namespaces/inkscape"
   version="1.1"
   id="Layer_1"
   x="0px"
   y="0px"
   viewBox="0 0 512 512"
   style="enable-background:new 0 0 512 512;"
   xml:space="preserve"
   sodipodi:docname="parachute.svg"
   inkscape:version="1.0.1 (3bc2e813f5, 2020-09-07)"><metadata
   id="metadata49"><rdf:RDF><cc:Work
       rdf:about=""><dc:format>image/svg+xml</dc:format><dc:type
         rdf:resource="http://purl.org/dc/dcmitype/StillImage" /></cc:Work></rdf:RDF></metadata><defs
   id="defs47" /><sodipodi:namedview
   pagecolor="#ffffff"
   bordercolor="#666666"
   borderopacity="1"
   objecttolerance="10"
   gridtolerance="10"
   guidetolerance="10"
   inkscape:pageopacity="0"
   inkscape:pageshadow="2"
   inkscape:window-width="2560"
   inkscape:window-height="1376"
   id="namedview45"
   showgrid="false"
   inkscape:zoom="1.96875"
   inkscape:cx="256"
   inkscape:cy="256"
   inkscape:window-x="0"
   inkscape:window-y="27"
   inkscape:window-maximized="1"
   inkscape:current-layer="Layer_1" />
<g
   id="g6"
   style="fill:#444440;fill-opacity:1">
	<g
   id="g4"
   style="fill:#444440;fill-opacity:1">
		<path
   d="M321.739,5.454C300.81,2.105,278.792,0,256,0c-22.798,0-44.821,2.107-65.756,5.456    c-11.235,18.767-17.722,40.691-17.722,64.109c0,25.653,7.818,49.485,21.108,69.364c19.873-3.247,40.705-5.364,62.37-5.364    c21.633,0,42.435,2.11,62.283,5.348c13.318-19.875,21.196-43.678,21.196-69.348C339.478,46.142,332.978,24.223,321.739,5.454z"
   id="path2"
   style="fill:#444440;fill-opacity:1" />
	</g>
</g>
<g
   id="g12"
   style="fill:#444440;fill-opacity:1">
	<g
   id="g10"
   style="fill:#444440;fill-opacity:1">
		<path
   d="M479.989,58.718c-20.807-11.068-63.266-31.333-117.318-44.916c6.547,17.365,10.199,36.136,10.199,55.763    c0,27.701-7.16,53.752-19.695,76.439c19.269,4.771,36.862,10.498,52.755,16.398l-30.188,45.281    c-0.012,0.018-0.024,0.036-0.037,0.055l-55.517,83.276l-18.992-18.992c-0.042-0.042-0.095-0.07-0.136-0.111    c3.128-6.534,5.028-13.761,5.028-21.475c0-27.619-22.468-50.087-50.087-50.087s-50.087,22.468-50.087,50.087    c0,7.716,1.9,14.941,5.028,21.475c-0.041,0.041-0.094,0.069-0.136,0.111l-18.992,18.992l-55.513-83.27    c-0.017-0.021-0.029-0.042-0.043-0.065l-30.185-45.275c15.89-5.898,33.476-11.625,52.738-16.395    c-12.533-22.686-19.68-48.745-19.68-76.444c0-19.641,3.701-38.402,10.257-55.777C95.309,27.372,52.828,47.646,32.022,58.718    c-16.316,8.68-26.457,25.603-26.457,44.179v25.946c0,35.493,35.814,59.931,68.88,46.318l31.294,46.94v95.116    c0,27.619,22.468,50.087,50.087,50.087h16.696v94.609c0,27.619,22.468,50.087,50.087,50.087c12.816,0,24.521-4.837,33.391-12.782    c8.87,7.946,20.576,12.782,33.391,12.782c27.619,0,50.087-22.468,50.087-50.087v-94.609h16.696    c27.619,0,50.087-22.468,50.087-50.087v-95.116l31.331-46.995c6.115,2.519,12.522,3.899,18.93,3.899    c27.057,0,49.913-22.007,49.913-50.163v-25.946C506.435,84.321,496.294,67.397,479.989,58.718z M172.522,333.913h-16.696    c-9.206,0-16.696-7.49-16.696-16.696v-45.03l33.391,50.085V333.913z M372.87,317.217c0,9.206-7.49,16.696-16.696,16.696h-16.696    v-11.641l33.391-50.085V317.217z"
   id="path8"
   style="fill:#444440;fill-opacity:1" />
	</g>
</g>
<g
   id="g14"
   style="fill:#444440;fill-opacity:1">
</g>
<g
   id="g16"
   style="fill:#444440;fill-opacity:1">
</g>
<g
   id="g18"
   style="fill:#444440;fill-opacity:1">
</g>
<g
   id="g20"
   style="fill:#444440;fill-opacity:1">
</g>
<g
   id="g22"
   style="fill:#444440;fill-opacity:1">
</g>
<g
   id="g24"
   style="fill:#444440;fill-opacity:1">
</g>
<g
   id="g26"
   style="fill:#444440;fill-opacity:1">
</g>
<g
   id="g28"
   style="fill:#444440;fill-opacity:1">
</g>
<g
   id="g30"
   style="fill:#444440;fill-opacity:1">
</g>
<g
   id="g32"
   style="fill:#444440;fill-opacity:1">
</g>
<g
   id="g34"
   style="fill:#444440;fill-opacity:1">
</g>
<g
   id="g36"
   style="fill:#444440;fill-opacity:1">
</g>
<g
   id="g38"
   style="fill:#444440;fill-opacity:1">
</g>
<g
   id="g40"
   style="fill:#444440;fill-opacity:1">
</g>
<g
   id="g42"
   style="fill:#444440;fill-opacity:1">
</g>
</svg>
