<?xml version="1.0" encoding="UTF-8" standalone="no"?>
<svg
   xmlns:dc="http://purl.org/dc/elements/1.1/"
   xmlns:cc="http://creativecommons.org/ns#"
   xmlns:rdf="http://www.w3.org/1999/02/22-rdf-syntax-ns#"
   xmlns:svg="http://www.w3.org/2000/svg"
   xmlns="http://www.w3.org/2000/svg"
   xmlns:sodipodi="http://sodipodi.sourceforge.net/DTD/sodipodi-0.dtd"
   xmlns:inkscape="http://www.inkscape.org/namespaces/inkscape"
   id="Capa_1"
   enable-background="new 0 0 512 512"
   height="512"
   viewBox="0 0 512 512"
   width="512"
   version="1.1"
   sodipodi:docname="sailboat.svg"
   inkscape:version="1.0.1 (3bc2e813f5, 2020-09-07)">
  <metadata
     id="metadata13">
    <rdf:RDF>
      <cc:Work
         rdf:about="">
        <dc:format>image/svg+xml</dc:format>
        <dc:type
           rdf:resource="http://purl.org/dc/dcmitype/StillImage" />
      </cc:Work>
    </rdf:RDF>
  </metadata>
  <defs
     id="defs11" />
  <sodipodi:namedview
     pagecolor="#ffffff"
     bordercolor="#666666"
     borderopacity="1"
     objecttolerance="10"
     gridtolerance="10"
     guidetolerance="10"
     inkscape:pageopacity="0"
     inkscape:pageshadow="2"
     inkscape:window-width="2560"
     inkscape:window-height="1376"
     id="namedview9"
     showgrid="false"
     inkscape:zoom="1.96875"
     inkscape:cx="256"
     inkscape:cy="256"
     inkscape:window-x="0"
     inkscape:window-y="27"
     inkscape:window-maximized="1"
     inkscape:current-layer="Capa_1" />
  <g
     id="g6"
     style="fill:#444440;fill-opacity:1">
    <path
       d="m90.997 364.003h119.998v-216.821l-132.375 193.347c-6.805 9.94.33 23.474 12.377 23.474z"
       id="path2"
       style="fill:#444440;fill-opacity:1" />
    <path
       d="m488.49 391.572h-224.999v-27.569h149.997c8.28 0 15-6.72 15-15 0-45.429-9.19-87.148-27.32-124.008-29.039-59.049-81.459-104.268-137.677-127.378v-82.608c0-10.61-10.75-17.85-20.55-13.93-.05.02-.09.04-.14.05-4.03 1.66-89.908 36.969-90.008 37.009-12.31 5.06-12.39 22.51-.13 27.69l80.829 34.129v291.615h-209.994c-9.217 0-16.388 8.233-14.803 17.86 16.103 105.627 13.38 87.765 13.693 89.818 1.112 7.331 7.414 12.75 14.83 12.75h335.291c51.636 0 97.805-29.107 120.101-73.312.075.006.152.007.227.013 4.44-8.93 7.89-18.39 10.24-28.21 2.365-9.88-4.925-18.919-14.587-18.919zm-224.999-248.235c40.059 49.959 40.119 120.338 0 170.367z"
       id="path4"
       style="fill:#444440;fill-opacity:1" />
  </g>
</svg>
